<svg width="251" height="203" viewBox="0 0 251 203" fill="none" xmlns="http://www.w3.org/2000/svg">
<path d="M93.6923 86V128.239H64.9914L64.6923 160" stroke="#3DDEED" stroke-opacity="0.8"/>
<path d="M56.3845 158L60.6152 165.118L69.0768 165.118L73.3075 158L69.0768 150.882L60.6152 150.882L56.3845 158Z" fill="#3DDEED" fill-opacity="0.8"/>
<path d="M59.2217 147.5L53.5678 158L59.2217 168.5L70.4705 168.5L76.1244 158L70.4705 147.5L59.2217 147.5Z" stroke="#3DDEED" stroke-opacity="0.8"/>
<path d="M70.4507 77.3936L202.755 77.3936V35.9867L176.215 7.67738H70.4507V77.3936Z" stroke="#3DDEED" stroke-opacity="0.8"/>
<path d="M72.5641 74.7925H200.316V37.2877L174.752 10.1159H72.5641V74.7925Z" stroke="#3DDEED" stroke-opacity="0.8"/>
<path d="M146.519 80.1694V77.7309H203.092V69.4401L205.043 71.716V80.1694H146.519Z" fill="#3DDEED" fill-opacity="0.8"/>
<path d="M85.557 80.6449H85.7934L85.9434 80.8276L89.5324 85.1968H95.6238V79.369H71.142L72.1445 80.6449H85.557Z" stroke="#3DDEED" stroke-opacity="0.8"/>
<path d="M68 20.6703L70.1134 22.7837V7.33993H82.6309L80.6801 5.38914H68V20.6703Z" fill="#3DDEED" fill-opacity="0.8"/>
<path d="M176.431 1.00001V6.03955L113.681 6.03955L117.582 1.00001L160.5 1.00001L176.431 1.00001Z" fill="#3DDEED" fill-opacity="0.8" stroke="#3DDEED" stroke-opacity="0.8"/>
<path d="M93.46 46.7L90.3 51H87.38L90.88 46.34C90.52 46.44 90.14 46.5 89.78 46.5C86.76 46.5 84.72 44.38 84.72 41.42C84.72 38.3 87.04 36.12 90.16 36.12C93.32 36.12 95.68 38.44 95.68 41.44C95.68 43.2 95.1 44.48 93.46 46.7ZM93.06 41.42C93.06 39.64 91.88 38.4 90.16 38.4C88.48 38.4 87.3 39.64 87.3 41.42C87.3 43.18 88.48 44.4 90.16 44.4C91.9 44.4 93.06 43.18 93.06 41.42ZM102.166 51.24C99.1056 51.24 97.0856 49.28 97.0856 46.32H99.6256C99.6256 47.98 100.606 48.96 102.226 48.96C103.946 48.96 105.046 47.84 105.046 46.06C105.046 44.36 104.026 43.2 102.266 43.2C101.146 43.2 100.126 43.76 99.6056 44.52L97.3456 44.04L99.1456 36.38H106.766V38.74H100.986L100.206 41.78C100.906 41.32 101.786 41.06 102.786 41.06C105.706 41.06 107.646 43.04 107.646 45.92C107.646 49.08 105.426 51.24 102.166 51.24ZM116.578 39.94C116.578 42.2 114.978 43.78 112.758 43.78C110.538 43.78 108.938 42.2 108.938 39.94C108.938 37.7 110.538 36.1 112.758 36.1C114.978 36.1 116.578 37.7 116.578 39.94ZM124.598 36.4L113.498 51H111.058L122.158 36.4H124.598ZM114.638 39.94C114.638 38.78 113.878 37.98 112.758 37.98C111.638 37.98 110.898 38.78 110.898 39.94C110.898 41.1 111.658 41.9 112.758 41.9C113.878 41.9 114.638 41.1 114.638 39.94ZM126.738 47.42C126.738 49.66 125.158 51.26 122.938 51.26C120.698 51.26 119.118 49.66 119.118 47.42C119.118 45.18 120.698 43.58 122.938 43.58C125.158 43.58 126.738 45.18 126.738 47.42ZM124.798 47.42C124.798 46.26 124.038 45.46 122.938 45.46C121.818 45.46 121.058 46.26 121.058 47.42C121.058 48.58 121.818 49.38 122.938 49.38C124.038 49.38 124.798 48.58 124.798 47.42ZM147.839 45.02H142.399V51H139.839V36.38H148.879V38.74H142.399V42.72H147.839V45.02ZM152.966 51.26C150.866 51.26 149.586 50.04 149.586 48.18C149.586 46.36 150.906 45.22 153.246 45.04L156.206 44.82V44.6C156.206 43.26 155.406 42.72 154.166 42.72C152.726 42.72 151.926 43.32 151.926 44.36H149.846C149.846 42.22 151.606 40.82 154.286 40.82C156.946 40.82 158.586 42.26 158.586 45V51H156.446L156.266 49.54C155.846 50.56 154.506 51.26 152.966 51.26ZM153.766 49.42C155.266 49.42 156.226 48.52 156.226 47V46.48L154.166 46.64C152.646 46.78 152.066 47.28 152.066 48.08C152.066 48.98 152.666 49.42 153.766 49.42ZM163.443 51H161.023V36.12H163.443V45.26L167.283 41.12H170.343L166.583 45.04L170.263 51H167.463L164.883 46.84L163.443 48.34V51ZM175.715 51.26C172.775 51.26 170.715 49.12 170.715 46.06C170.715 42.96 172.735 40.82 175.635 40.82C178.595 40.82 180.475 42.8 180.475 45.88V46.62L173.035 46.64C173.215 48.38 174.135 49.26 175.755 49.26C177.095 49.26 177.975 48.74 178.255 47.8H180.515C180.095 49.96 178.295 51.26 175.715 51.26ZM175.655 42.82C174.215 42.82 173.335 43.6 173.095 45.08H178.055C178.055 43.72 177.115 42.82 175.655 42.82Z" fill="#3DDEED" fill-opacity="0.8"/>
<path d="M170 82V124.239H198.701L199 156" stroke="#3DDEED" stroke-opacity="0.8"/>
<path d="M204.471 143.5L210.125 154L204.471 164.5L193.222 164.5L187.568 154L193.222 143.5L204.471 143.5Z" stroke="#3DDEED" stroke-opacity="0.8"/>
<path d="M207.308 154L203.077 161.118L194.616 161.118L190.385 154L194.616 146.882L203.077 146.882L207.308 154Z" fill="#3DDEED" fill-opacity="0.8"/>
<path d="M3.344 186.304V196.112H8.24V198H1.296V186.304H3.344ZM11.9694 198.208C10.2894 198.208 9.26538 197.232 9.26538 195.744C9.26538 194.288 10.3214 193.376 12.1934 193.232L14.5614 193.056V192.88C14.5614 191.808 13.9214 191.376 12.9294 191.376C11.7774 191.376 11.1374 191.856 11.1374 192.688H9.47338C9.47338 190.976 10.8814 189.856 13.0254 189.856C15.1534 189.856 16.4654 191.008 16.4654 193.2V198H14.7534L14.6094 196.832C14.2734 197.648 13.2014 198.208 11.9694 198.208ZM12.6094 196.736C13.8094 196.736 14.5774 196.016 14.5774 194.8V194.384L12.9294 194.512C11.7134 194.624 11.2494 195.024 11.2494 195.664C11.2494 196.384 11.7294 196.736 12.6094 196.736ZM17.4763 201.664V200.032H18.6443C19.4123 200.032 19.8923 199.856 20.2283 198.928L20.4523 198.336L17.2683 190.096H19.3323L21.3643 195.856L23.5083 190.096H25.5243L21.6523 199.76C21.0603 201.232 20.2283 201.84 18.9323 201.84C18.3883 201.84 17.9083 201.776 17.4763 201.664ZM29.8096 198.208C27.4576 198.208 25.8096 196.496 25.8096 194.048C25.8096 191.568 27.4256 189.856 29.7456 189.856C32.1136 189.856 33.6176 191.44 33.6176 193.904V194.496L27.6656 194.512C27.8096 195.904 28.5456 196.608 29.8416 196.608C30.9136 196.608 31.6176 196.192 31.8416 195.44H33.6496C33.3136 197.168 31.8736 198.208 29.8096 198.208ZM29.7616 191.456C28.6096 191.456 27.9056 192.08 27.7136 193.264H31.6816C31.6816 192.176 30.9296 191.456 29.7616 191.456ZM40.1399 190.064V191.872H39.4199C38.0119 191.872 37.1319 192.624 37.1319 194.16V198H35.1799V190.112H37.0199L37.1319 191.264C37.4679 190.48 38.2199 189.952 39.2759 189.952C39.5479 189.952 39.8199 189.984 40.1399 190.064ZM40.8531 195.6H42.7091C42.7251 196.288 43.2371 196.72 44.1331 196.72C45.0451 196.72 45.5411 196.352 45.5411 195.776C45.5411 195.376 45.3331 195.088 44.6291 194.928L43.2051 194.592C41.7811 194.272 41.0931 193.6 41.0931 192.336C41.0931 190.784 42.4051 189.856 44.2291 189.856C46.0051 189.856 47.2051 190.88 47.2211 192.416H45.3651C45.3491 191.744 44.9011 191.312 44.1491 191.312C43.3811 191.312 42.9331 191.664 42.9331 192.256C42.9331 192.704 43.2851 192.992 43.9571 193.152L45.3811 193.488C46.7091 193.792 47.3811 194.4 47.3811 195.616C47.3811 197.216 46.0211 198.208 44.0691 198.208C42.1011 198.208 40.8531 197.152 40.8531 195.6ZM55.4839 198H53.4679V186.304H55.4999L60.9879 194.592V186.304H63.0039V198H60.9879L55.4839 189.712V198ZM70.6649 190.096H72.6169V198H70.8089L70.6649 196.944C70.1849 197.696 69.1609 198.208 68.1049 198.208C66.2809 198.208 65.2089 196.976 65.2089 195.04V190.096H67.1609V194.352C67.1609 195.856 67.7529 196.464 68.8409 196.464C70.0729 196.464 70.6649 195.744 70.6649 194.24V190.096ZM76.585 198H74.633V190.096H76.425L76.585 191.024C76.985 190.368 77.785 189.856 78.921 189.856C80.121 189.856 80.953 190.448 81.369 191.36C81.769 190.448 82.697 189.856 83.897 189.856C85.817 189.856 86.873 191.008 86.873 192.832V198H84.937V193.344C84.937 192.208 84.329 191.616 83.401 191.616C82.457 191.616 81.737 192.224 81.737 193.52V198H79.785V193.328C79.785 192.224 79.193 191.632 78.265 191.632C77.337 191.632 76.585 192.24 76.585 193.52V198ZM90.5973 198H88.7893V186.096H90.7413V191.248C91.2533 190.368 92.3093 189.84 93.5093 189.84C95.7653 189.84 97.1413 191.6 97.1413 194.096C97.1413 196.528 95.6533 198.208 93.3813 198.208C92.1973 198.208 91.1893 197.68 90.7253 196.768L90.5973 198ZM90.7573 194.016C90.7573 195.44 91.6373 196.416 92.9813 196.416C94.3573 196.416 95.1733 195.424 95.1733 194.016C95.1733 192.608 94.3573 191.6 92.9813 191.6C91.6373 191.6 90.7573 192.592 90.7573 194.016ZM102.232 198.208C99.8795 198.208 98.2315 196.496 98.2315 194.048C98.2315 191.568 99.8475 189.856 102.168 189.856C104.536 189.856 106.04 191.44 106.04 193.904V194.496L100.088 194.512C100.232 195.904 100.968 196.608 102.264 196.608C103.336 196.608 104.04 196.192 104.264 195.44H106.072C105.736 197.168 104.296 198.208 102.232 198.208ZM102.184 191.456C101.032 191.456 100.328 192.08 100.136 193.264H104.104C104.104 192.176 103.352 191.456 102.184 191.456ZM112.562 190.064V191.872H111.842C110.434 191.872 109.554 192.624 109.554 194.16V198H107.602V190.112H109.442L109.554 191.264C109.89 190.48 110.642 189.952 111.698 189.952C111.97 189.952 112.242 189.984 112.562 190.064Z" fill="white"/>
<path d="M171.92 183.968H169.344V188H167.296V176.304H171.92C174.272 176.304 175.792 177.84 175.792 180.128C175.792 182.384 174.256 183.968 171.92 183.968ZM171.52 178.128H169.344V182.144H171.488C172.896 182.144 173.648 181.392 173.648 180.112C173.648 178.832 172.88 178.128 171.52 178.128ZM180.372 188.208C178.02 188.208 176.372 186.496 176.372 184.048C176.372 181.568 177.988 179.856 180.308 179.856C182.676 179.856 184.18 181.44 184.18 183.904V184.496L178.228 184.512C178.372 185.904 179.108 186.608 180.404 186.608C181.476 186.608 182.18 186.192 182.404 185.44H184.212C183.876 187.168 182.436 188.208 180.372 188.208ZM180.324 181.456C179.172 181.456 178.468 182.08 178.276 183.264H182.244C182.244 182.176 181.492 181.456 180.324 181.456ZM190.702 180.064V181.872H189.982C188.574 181.872 187.694 182.624 187.694 184.16V188H185.742V180.112H187.582L187.694 181.264C188.03 180.48 188.782 179.952 189.838 179.952C190.11 179.952 190.382 179.984 190.702 180.064ZM191.294 184.032C191.294 181.584 192.91 179.856 195.246 179.856C197.406 179.856 198.878 181.056 199.086 182.96H197.134C196.91 182.064 196.254 181.6 195.326 181.6C194.078 181.6 193.246 182.544 193.246 184.032C193.246 185.52 194.014 186.448 195.262 186.448C196.238 186.448 196.926 185.968 197.134 185.104H199.102C198.862 186.944 197.326 188.208 195.262 188.208C192.862 188.208 191.294 186.544 191.294 184.032ZM204.091 188.208C201.739 188.208 200.091 186.496 200.091 184.048C200.091 181.568 201.707 179.856 204.027 179.856C206.395 179.856 207.899 181.44 207.899 183.904V184.496L201.947 184.512C202.091 185.904 202.827 186.608 204.123 186.608C205.195 186.608 205.899 186.192 206.123 185.44H207.931C207.595 187.168 206.155 188.208 204.091 188.208ZM204.043 181.456C202.891 181.456 202.187 182.08 201.995 183.264H205.963C205.963 182.176 205.211 181.456 204.043 181.456ZM211.413 188H209.461V180.096H211.269L211.429 181.12C211.925 180.32 212.885 179.856 213.957 179.856C215.941 179.856 216.965 181.088 216.965 183.136V188H215.013V183.6C215.013 182.272 214.357 181.632 213.349 181.632C212.149 181.632 211.413 182.464 211.413 183.744V188ZM221.571 188H219.619V181.728H218.099V180.096H219.619V177.632H221.571V180.096H223.107V181.728H221.571V188ZM226.626 188.208C224.946 188.208 223.922 187.232 223.922 185.744C223.922 184.288 224.978 183.376 226.85 183.232L229.218 183.056V182.88C229.218 181.808 228.578 181.376 227.586 181.376C226.434 181.376 225.794 181.856 225.794 182.688H224.13C224.13 180.976 225.538 179.856 227.682 179.856C229.81 179.856 231.122 181.008 231.122 183.2V188H229.41L229.266 186.832C228.93 187.648 227.858 188.208 226.626 188.208ZM227.266 186.736C228.466 186.736 229.234 186.016 229.234 184.8V184.384L227.586 184.512C226.37 184.624 225.906 185.024 225.906 185.664C225.906 186.384 226.386 186.736 227.266 186.736ZM232.591 183.872C232.591 181.568 234.095 179.84 236.351 179.84C237.535 179.84 238.463 180.336 238.927 181.184L239.039 180.096H240.847V187.6C240.847 190.24 239.263 191.888 236.703 191.888C234.431 191.888 232.879 190.592 232.639 188.48H234.591C234.719 189.504 235.503 190.112 236.703 190.112C238.047 190.112 238.911 189.264 238.911 187.952V186.64C238.415 187.376 237.439 187.84 236.303 187.84C234.063 187.84 232.591 186.16 232.591 183.872ZM234.559 183.824C234.559 185.152 235.407 186.144 236.687 186.144C238.031 186.144 238.863 185.2 238.863 183.824C238.863 182.48 238.047 181.552 236.687 181.552C235.391 181.552 234.559 182.528 234.559 183.824ZM246.403 188.208C244.051 188.208 242.403 186.496 242.403 184.048C242.403 181.568 244.019 179.856 246.339 179.856C248.707 179.856 250.211 181.44 250.211 183.904V184.496L244.259 184.512C244.403 185.904 245.139 186.608 246.435 186.608C247.507 186.608 248.211 186.192 248.435 185.44H250.243C249.907 187.168 248.467 188.208 246.403 188.208ZM246.355 181.456C245.203 181.456 244.499 182.08 244.307 183.264H248.275C248.275 182.176 247.523 181.456 246.355 181.456Z" fill="white"/>
</svg>
