<svg width="332" height="161" viewBox="0 0 332 161" fill="none" xmlns="http://www.w3.org/2000/svg">
<path d="M226.18 51H223.62V36.38H226.18V42.42H232.66V36.38H235.22V51H232.66V44.8H226.18V51ZM244.804 41.12H247.244V51H244.984L244.804 49.68C244.204 50.62 242.924 51.26 241.604 51.26C239.324 51.26 237.984 49.72 237.984 47.3V41.12H240.424V46.44C240.424 48.32 241.164 49.08 242.524 49.08C244.064 49.08 244.804 48.18 244.804 46.3V41.12ZM252.204 51H249.764V41.12H252.004L252.204 42.28C252.704 41.46 253.704 40.82 255.124 40.82C256.624 40.82 257.664 41.56 258.184 42.7C258.684 41.56 259.844 40.82 261.344 40.82C263.744 40.82 265.064 42.26 265.064 44.54V51H262.644V45.18C262.644 43.76 261.884 43.02 260.724 43.02C259.544 43.02 258.644 43.78 258.644 45.4V51H256.204V45.16C256.204 43.78 255.464 43.04 254.304 43.04C253.144 43.04 252.204 43.8 252.204 45.4V51ZM270.399 51.26C268.299 51.26 267.019 50.04 267.019 48.18C267.019 46.36 268.339 45.22 270.679 45.04L273.639 44.82V44.6C273.639 43.26 272.839 42.72 271.599 42.72C270.159 42.72 269.359 43.32 269.359 44.36H267.279C267.279 42.22 269.039 40.82 271.719 40.82C274.379 40.82 276.019 42.26 276.019 45V51H273.879L273.699 49.54C273.279 50.56 271.939 51.26 270.399 51.26ZM271.199 49.42C272.699 49.42 273.659 48.52 273.659 47V46.48L271.599 46.64C270.079 46.78 269.499 47.28 269.499 48.08C269.499 48.98 270.099 49.42 271.199 49.42ZM280.856 51H278.416V41.12H280.676L280.876 42.4C281.496 41.4 282.696 40.82 284.036 40.82C286.516 40.82 287.796 42.36 287.796 44.92V51H285.356V45.5C285.356 43.84 284.536 43.04 283.276 43.04C281.776 43.04 280.856 44.08 280.856 45.68V51ZM298.484 46.62H296.524C296.264 45.02 296.084 42.34 296.084 39.74V36.38H298.964V39.74C298.964 42.4 298.764 45.08 298.484 46.62ZM297.524 51.26C296.624 51.26 295.884 50.54 295.884 49.68C295.884 48.8 296.624 48.08 297.524 48.08C298.384 48.08 299.124 48.8 299.124 49.68C299.124 50.54 298.384 51.26 297.524 51.26Z" fill="#3DDEED" fill-opacity="0.8"/>
<path d="M197.408 8.30322H329.712V49.7101L303.172 78.0194H197.408V8.30322Z" stroke="#3DDEED" stroke-opacity="0.8"/>
<path d="M199.521 10.9043H327.273V48.409L301.709 75.5809H199.521V10.9043Z" stroke="#3DDEED" stroke-opacity="0.8"/>
<path d="M273.476 5.52734V7.96583H330.049V16.2567L332 13.9808V5.52734H273.476Z" fill="#3DDEED" fill-opacity="0.8"/>
<path d="M212.514 5.05185H212.75L212.9 4.86921L216.489 0.5H222.581V6.32777H198.099L199.102 5.05185H212.514Z" stroke="#3DDEED" stroke-opacity="0.8"/>
<path d="M194.957 65.0264L197.07 62.9131V78.3568H209.588L207.637 80.3076H194.957V65.0264Z" fill="#3DDEED" fill-opacity="0.8"/>
<path d="M189.267 68.4401V36.2521L195.77 32.0112V32.0254V62.1001L193.331 64.376V71.5289L189.267 68.4401Z" fill="#3DDEED" fill-opacity="0.8"/>
<path d="M189 64V106.239H217.701L218 138" stroke="#3DDEED" stroke-opacity="0.8"/>
<path d="M152.471 77.5L158.125 88L152.471 98.5L141.222 98.5L135.568 88L141.222 77.5L152.471 77.5Z" stroke="#3DDEED" stroke-opacity="0.8"/>
<path d="M155.308 88L151.077 95.1176L142.616 95.1176L138.385 88L142.616 80.8823L151.077 80.8823L155.308 88Z" fill="#3DDEED" fill-opacity="0.8"/>
<path d="M223.471 138.5L229.124 149L223.471 159.5L212.222 159.5L206.568 149L212.222 138.5L223.471 138.5Z" stroke="#3DDEED" stroke-opacity="0.8"/>
<path d="M226.308 149L222.077 156.118L213.615 156.118L209.385 149L213.615 141.882L222.077 141.882L226.308 149Z" fill="#3DDEED" fill-opacity="0.8"/>
<path d="M189.43 81.2832H178.05L171.71 88.4361H158.054" stroke="#3DDEED" stroke-opacity="0.8"/>
<path d="M303.388 90.8743V79.6572H240.638L244.54 84.6968H287.457L291.358 90.8743H303.388Z" fill="#3DDEED" fill-opacity="0.8" stroke="#3DDEED" stroke-opacity="0.8"/>
<path d="M109.344 156H107.296V144.304H111.76C114.416 144.304 115.968 145.648 115.968 147.952C115.968 149.52 115.232 150.64 113.856 151.2L116.08 156H113.84L111.856 151.632H109.344V156ZM109.344 146.128V149.824H111.76C113.056 149.824 113.824 149.136 113.824 147.952C113.824 146.784 113.056 146.128 111.76 146.128H109.344ZM120.7 156.208C118.348 156.208 116.7 154.496 116.7 152.048C116.7 149.568 118.316 147.856 120.636 147.856C123.004 147.856 124.508 149.44 124.508 151.904V152.496L118.556 152.512C118.7 153.904 119.436 154.608 120.732 154.608C121.804 154.608 122.508 154.192 122.732 153.44H124.54C124.204 155.168 122.764 156.208 120.7 156.208ZM120.652 149.456C119.5 149.456 118.796 150.08 118.604 151.264H122.572C122.572 150.176 121.82 149.456 120.652 149.456ZM128.344 156.208C126.664 156.208 125.64 155.232 125.64 153.744C125.64 152.288 126.696 151.376 128.568 151.232L130.936 151.056V150.88C130.936 149.808 130.296 149.376 129.304 149.376C128.152 149.376 127.512 149.856 127.512 150.688H125.848C125.848 148.976 127.256 147.856 129.4 147.856C131.528 147.856 132.84 149.008 132.84 151.2V156H131.128L130.984 154.832C130.648 155.648 129.576 156.208 128.344 156.208ZM128.984 154.736C130.184 154.736 130.952 154.016 130.952 152.8V152.384L129.304 152.512C128.088 152.624 127.624 153.024 127.624 153.664C127.624 154.384 128.104 154.736 128.984 154.736ZM136.726 156H134.79V144.096H136.726V156ZM142.622 152.032C142.622 149.568 144.398 147.872 146.846 147.872C149.294 147.872 151.07 149.568 151.07 152.032C151.07 154.496 149.294 156.192 146.846 156.192C144.398 156.192 142.622 154.496 142.622 152.032ZM144.574 152.032C144.574 153.472 145.502 154.448 146.846 154.448C148.19 154.448 149.118 153.472 149.118 152.032C149.118 150.592 148.19 149.616 146.846 149.616C145.502 149.616 144.574 150.592 144.574 152.032ZM157.577 148.064V149.872H156.857C155.449 149.872 154.569 150.624 154.569 152.16V156H152.617V148.112H154.457L154.569 149.264C154.905 148.48 155.657 147.952 156.713 147.952C156.985 147.952 157.257 147.984 157.577 148.064ZM169.899 151.216H165.547V156H163.499V144.304H170.731V146.192H165.547V149.376H169.899V151.216ZM174.001 156.208C172.321 156.208 171.297 155.232 171.297 153.744C171.297 152.288 172.353 151.376 174.225 151.232L176.593 151.056V150.88C176.593 149.808 175.953 149.376 174.961 149.376C173.809 149.376 173.169 149.856 173.169 150.688H171.505C171.505 148.976 172.913 147.856 175.057 147.856C177.185 147.856 178.497 149.008 178.497 151.2V156H176.785L176.641 154.832C176.305 155.648 175.233 156.208 174.001 156.208ZM174.641 154.736C175.841 154.736 176.609 154.016 176.609 152.8V152.384L174.961 152.512C173.745 152.624 173.281 153.024 173.281 153.664C173.281 154.384 173.761 154.736 174.641 154.736ZM182.382 156H180.446V144.096H182.382V151.408L185.454 148.096H187.902L184.894 151.232L187.838 156H185.598L183.534 152.672L182.382 153.872V156ZM192.2 156.208C189.848 156.208 188.2 154.496 188.2 152.048C188.2 149.568 189.816 147.856 192.136 147.856C194.504 147.856 196.008 149.44 196.008 151.904V152.496L190.056 152.512C190.2 153.904 190.936 154.608 192.232 154.608C193.304 154.608 194.008 154.192 194.232 153.44H196.04C195.704 155.168 194.264 156.208 192.2 156.208ZM192.152 149.456C191 149.456 190.296 150.08 190.104 151.264H194.072C194.072 150.176 193.32 149.456 192.152 149.456Z" fill="white"/>
<path d="M5.504 92H1.296V80.304H5.392C8.848 80.304 11.232 82.688 11.232 86.176C11.232 89.616 8.896 92 5.504 92ZM5.2 82.192H3.344V90.112H5.312C7.648 90.112 9.072 88.608 9.072 86.176C9.072 83.696 7.616 82.192 5.2 82.192ZM16.3878 92.208C14.0358 92.208 12.3878 90.496 12.3878 88.048C12.3878 85.568 14.0038 83.856 16.3238 83.856C18.6918 83.856 20.1958 85.44 20.1958 87.904V88.496L14.2438 88.512C14.3878 89.904 15.1238 90.608 16.4198 90.608C17.4918 90.608 18.1958 90.192 18.4198 89.44H20.2278C19.8918 91.168 18.4518 92.208 16.3878 92.208ZM16.3398 85.456C15.1878 85.456 14.4838 86.08 14.2918 87.264H18.2598C18.2598 86.176 17.5078 85.456 16.3398 85.456ZM24.3679 92H22.4159V85.728H20.8959V84.096H22.4159V81.632H24.3679V84.096H25.9039V85.728H24.3679V92ZM30.5753 92.208C28.2233 92.208 26.5753 90.496 26.5753 88.048C26.5753 85.568 28.1913 83.856 30.5113 83.856C32.8793 83.856 34.3833 85.44 34.3833 87.904V88.496L28.4313 88.512C28.5753 89.904 29.3113 90.608 30.6073 90.608C31.6793 90.608 32.3833 90.192 32.6073 89.44H34.4153C34.0793 91.168 32.6393 92.208 30.5753 92.208ZM30.5273 85.456C29.3753 85.456 28.6713 86.08 28.4793 87.264H32.4473C32.4473 86.176 31.6953 85.456 30.5273 85.456ZM35.4815 88.032C35.4815 85.584 37.0975 83.856 39.4335 83.856C41.5935 83.856 43.0655 85.056 43.2735 86.96H41.3215C41.0975 86.064 40.4415 85.6 39.5135 85.6C38.2655 85.6 37.4335 86.544 37.4335 88.032C37.4335 89.52 38.2015 90.448 39.4495 90.448C40.4255 90.448 41.1135 89.968 41.3215 89.104H43.2895C43.0495 90.944 41.5135 92.208 39.4495 92.208C37.0495 92.208 35.4815 90.544 35.4815 88.032ZM47.4304 92H45.4784V85.728H43.9584V84.096H45.4784V81.632H47.4304V84.096H48.9664V85.728H47.4304V92ZM61.1804 87.216H56.8284V92H54.7804V80.304H62.0124V82.192H56.8284V85.376H61.1804V87.216ZM66.4971 92.208C64.1451 92.208 62.4971 90.496 62.4971 88.048C62.4971 85.568 64.1131 83.856 66.4331 83.856C68.8011 83.856 70.3051 85.44 70.3051 87.904V88.496L64.3531 88.512C64.4971 89.904 65.2331 90.608 66.5291 90.608C67.6011 90.608 68.3051 90.192 68.5291 89.44H70.3371C70.0011 91.168 68.5611 92.208 66.4971 92.208ZM66.4491 85.456C65.2971 85.456 64.5931 86.08 64.4011 87.264H68.3691C68.3691 86.176 67.6171 85.456 66.4491 85.456ZM74.1413 92.208C72.4613 92.208 71.4373 91.232 71.4373 89.744C71.4373 88.288 72.4933 87.376 74.3653 87.232L76.7333 87.056V86.88C76.7333 85.808 76.0933 85.376 75.1013 85.376C73.9493 85.376 73.3093 85.856 73.3093 86.688H71.6453C71.6453 84.976 73.0533 83.856 75.1973 83.856C77.3253 83.856 78.6373 85.008 78.6373 87.2V92H76.9253L76.7813 90.832C76.4453 91.648 75.3733 92.208 74.1413 92.208ZM74.7812 90.736C75.9813 90.736 76.7493 90.016 76.7493 88.8V88.384L75.1013 88.512C73.8853 88.624 73.4213 89.024 73.4213 89.664C73.4213 90.384 73.9013 90.736 74.7812 90.736ZM83.1335 92H81.1815V85.728H79.6615V84.096H81.1815V81.632H83.1335V84.096H84.6695V85.728H83.1335V92ZM91.243 84.096H93.195V92H91.387L91.243 90.944C90.763 91.696 89.739 92.208 88.683 92.208C86.859 92.208 85.787 90.976 85.787 89.04V84.096H87.739V88.352C87.739 89.856 88.331 90.464 89.419 90.464C90.651 90.464 91.243 89.744 91.243 88.24V84.096ZM100.171 84.064V85.872H99.4511C98.0431 85.872 97.1631 86.624 97.1631 88.16V92H95.2111V84.112H97.0511L97.1631 85.264C97.4991 84.48 98.2511 83.952 99.3071 83.952C99.5791 83.952 99.8511 83.984 100.171 84.064ZM104.763 92.208C102.411 92.208 100.763 90.496 100.763 88.048C100.763 85.568 102.379 83.856 104.699 83.856C107.067 83.856 108.571 85.44 108.571 87.904V88.496L102.619 88.512C102.763 89.904 103.499 90.608 104.795 90.608C105.867 90.608 106.571 90.192 106.795 89.44H108.603C108.267 91.168 106.827 92.208 104.763 92.208ZM104.715 85.456C103.563 85.456 102.859 86.08 102.667 87.264H106.635C106.635 86.176 105.883 85.456 104.715 85.456ZM109.525 89.6H111.381C111.397 90.288 111.909 90.72 112.805 90.72C113.717 90.72 114.213 90.352 114.213 89.776C114.213 89.376 114.005 89.088 113.301 88.928L111.877 88.592C110.453 88.272 109.765 87.6 109.765 86.336C109.765 84.784 111.077 83.856 112.901 83.856C114.677 83.856 115.877 84.88 115.893 86.416H114.037C114.021 85.744 113.573 85.312 112.821 85.312C112.053 85.312 111.605 85.664 111.605 86.256C111.605 86.704 111.957 86.992 112.629 87.152L114.053 87.488C115.381 87.792 116.053 88.4 116.053 89.616C116.053 91.216 114.693 92.208 112.741 92.208C110.773 92.208 109.525 91.152 109.525 89.6Z" fill="white"/>
</svg>
