<svg width="24" height="24" viewBox="0 0 24 24" fill="none" xmlns="http://www.w3.org/2000/svg">
<path d="M4.88533 0H0.618667C0.204445 0 0 0.118 0 0.352V23.647C0 23.882 0.204445 23.999 0.618667 23.999H4.88711C5.29956 23.999 5.50756 23.882 5.50756 23.647V18.537L8.04444 17.163L17.1378 23.753C17.3813 23.918 17.6693 24 18 24H23.5058C23.7938 24 23.9591 23.953 24 23.859L23.8756 23.506L11.8773 15.012L23.3813 8.669C23.5964 8.545 23.52 8.176 22.9476 8.176H17.2569C16.9689 8.176 16.6809 8.259 16.3911 8.423L5.50578 14.696V0.352C5.50578 0.118 5.29778 0 4.88533 0Z" fill="#35B5E2"/>
</svg>
