<svg width="26" height="26" viewBox="0 0 26 26" fill="none" xmlns="http://www.w3.org/2000/svg">
<path d="M23.5296 3.60181C24.0576 4.22581 24.5072 4.91701 24.864 5.66101C24.5672 5.95908 24.2144 6.19552 23.8258 6.3567C23.4373 6.51789 23.0207 6.60064 22.6 6.60021C22.0282 6.60113 21.4666 6.44804 20.9744 6.15701L23.5296 3.60181ZM22.3984 2.46901L19.8432 5.02581C19.4811 4.41477 19.3333 3.70038 19.4231 2.99582C19.513 2.29126 19.8354 1.63683 20.3392 1.13621C21.0832 1.49301 21.7744 1.94261 22.3984 2.46901ZM25.8 9.80021C25.8008 8.94078 25.6862 8.08513 25.4592 7.25621C24.6592 7.84821 23.6704 8.20021 22.6 8.20021C21.6026 8.20191 20.6296 7.89139 19.8176 7.31221L18.1312 9.00021L24.216 15.085C25.216 13.5682 25.8 11.7522 25.8 9.80021ZM17.8 3.40021C17.8 2.32821 18.1504 1.33941 18.744 0.54101C17.9151 0.314161 17.0594 0.199539 16.2 0.20021C14.321 0.196907 12.4827 0.747894 10.9152 1.78421L17 7.86901L18.6864 6.18101C18.1082 5.36918 17.7983 4.39689 17.8 3.40021ZM15.7312 11.4002C17.6164 13.5016 18.8397 16.1124 19.248 18.9058C20.7632 18.3975 22.1276 17.5193 23.2176 16.3506L17 10.1314L15.7312 11.4002ZM15.8688 9.00021L14.6 10.2674C12.4991 8.38253 9.88882 7.15922 7.09601 6.75061C7.60453 5.23604 8.48277 3.87222 9.65121 2.78261L15.8688 9.00021ZM2.60001 8.20021C1.96349 8.20021 1.35304 8.45307 0.902956 8.90315C0.452869 9.35324 0.200012 9.96369 0.200012 10.6002V13.0002C0.200012 16.395 1.54858 19.6507 3.94905 22.0512C6.34951 24.4516 9.60524 25.8002 13 25.8002H15.4C16.0365 25.8002 16.647 25.5474 17.0971 25.0973C17.5472 24.6472 17.8 24.0367 17.8 23.4002V21.0002C17.8 17.6054 16.4514 14.3497 14.051 11.9492C11.6505 9.54878 8.39478 8.20021 5.00001 8.20021H2.60001ZM6.83361 14.8338C6.90792 14.7593 6.99621 14.7002 7.0934 14.6599C7.19059 14.6195 7.29478 14.5988 7.40001 14.5988C7.50524 14.5988 7.60943 14.6195 7.70663 14.6599C7.80382 14.7002 7.8921 14.7593 7.96641 14.8338L11.1664 18.0338C11.3166 18.184 11.401 18.3878 11.401 18.6002C11.401 18.8127 11.3166 19.0164 11.1664 19.1666C11.0162 19.3168 10.8125 19.4012 10.6 19.4012C10.3876 19.4012 10.1838 19.3168 10.0336 19.1666L6.83361 15.9666C6.75911 15.8923 6.7 15.804 6.65967 15.7068C6.61934 15.6096 6.59858 15.5054 6.59858 15.4002C6.59858 15.295 6.61934 15.1908 6.65967 15.0936C6.7 14.9964 6.75911 14.9081 6.83361 14.8338Z" fill="white"/>
</svg>
